<svg width="105" height="104" viewBox="0 0 105 104" fill="none" xmlns="http://www.w3.org/2000/svg">
<g clip-path="url(#clip0_3905_14254)">
<g clip-path="url(#clip1_3905_14254)">
<path d="M1.30712 48.0027C4.16762 19.9711 35.1127 -0.081402 63.2394 2.7888C91.3661 5.65901 106.04 30.3891 103.181 58.3985C100.323 86.408 69.8135 104.761 41.6794 101.89C13.5452 99.0189 -1.55112 76.0122 1.30712 48.0027Z" fill="#DCF0FF"/>
<path d="M85.1342 72.5151L93.5357 72.035L87.1574 45.0471L79.0645 44.807" fill="black"/>
<path d="M85.1342 72.5151L93.5357 72.035L87.1574 45.0471L79.0645 44.807" stroke="black" stroke-width="0.5" stroke-miterlimit="10" stroke-linecap="round" stroke-linejoin="round"/>
<path d="M21.2138 47.5161L20.0479 47.5847L23.8543 74.5041L85.2372 55.1633L80.7106 28.0039L21.2138 47.5161Z" fill="#F5BD61" stroke="black" stroke-width="0.5" stroke-miterlimit="10" stroke-linecap="round" stroke-linejoin="round"/>
<path d="M20.1167 29.9585L20.734 47.5847L24.5404 74.4697L83.077 56.0206L75.8071 29.6156L20.1167 29.9585Z" fill="white" stroke="#231F20" stroke-width="0.5" stroke-miterlimit="10" stroke-linecap="round" stroke-linejoin="round"/>
<path d="M19.4307 29.9929L23.9572 57.1179L28.861 70.2518L85.2373 55.1633L80.7107 28.0039L19.4307 29.9929Z" fill="#F5BD61" stroke="black" stroke-width="0.5" stroke-miterlimit="10" stroke-linecap="round" stroke-linejoin="round"/>
<path d="M23.9574 57.1179L23.8545 74.504L85.1345 72.515L85.2374 55.1632L23.9574 57.1179Z" fill="#D19C4E" stroke="black" stroke-width="0.5" stroke-miterlimit="10" stroke-linecap="round" stroke-linejoin="round"/>
<path d="M41.4463 54.0315L45.3556 74.0581L54.1687 91.7186L68.7085 88.2894L45.87 54.0315" fill="black"/>
<path d="M41.4463 54.0315L45.3556 74.0581L54.1687 91.7186L68.7085 88.2894L45.87 54.0315" stroke="black" stroke-width="0.5" stroke-miterlimit="10" stroke-linecap="round" stroke-linejoin="round"/>
<path d="M77.7615 88.4952L42.1663 51.4597L41.4461 53.0371C41.309 53.3457 41.309 53.6887 41.4461 54.0316L53.757 91.0328C54.0656 91.993 55.1973 92.6788 56.2946 92.5759L75.9097 90.6213C76.6642 90.5527 77.1785 90.1412 77.3157 89.5582L77.7615 88.4952Z" fill="#E4E1DD" stroke="black" stroke-width="0.5" stroke-miterlimit="10" stroke-linecap="round" stroke-linejoin="round"/>
<path d="M77.83 87.3978L65.5191 50.3966C65.2105 49.4364 64.0788 48.7506 62.9815 48.8535L43.3664 50.8081C42.269 50.911 41.6518 51.7683 41.9947 52.7285L54.3056 89.6954C54.6142 90.6556 55.7458 91.3414 56.8432 91.2385L76.4583 89.2839C77.5556 89.2153 78.1729 88.358 77.83 87.3978Z" fill="white" stroke="black" stroke-width="0.5" stroke-miterlimit="10" stroke-linecap="round" stroke-linejoin="round"/>
<path d="M77.1097 85.1688L65.5533 50.3966C65.2446 49.4364 64.113 48.7506 63.0157 48.8535L43.4006 50.8081C42.3032 50.911 41.6859 51.7683 42.0289 52.7285L53.5853 87.535L77.1097 85.1688Z" fill="#B2A58D" stroke="black" stroke-width="0.5" stroke-miterlimit="10" stroke-linecap="round" stroke-linejoin="round"/>
<path d="M67.7392 88.8728C68.0748 88.1936 67.6999 87.3234 66.9019 86.9291C66.1039 86.5348 65.185 86.7657 64.8494 87.4448C64.5138 88.124 64.8886 88.9942 65.6866 89.3885C66.4846 89.7828 67.4036 89.552 67.7392 88.8728Z" stroke="#B2A58D" stroke-width="0.5" stroke-miterlimit="10" stroke-linecap="round" stroke-linejoin="round"/>
<path d="M9.62339 26.495C11.2694 26.0835 36.8856 19.6708 51.1855 16.0702C52.4543 15.7958 55.0262 16.8589 56.1921 17.7162L61.233 67.4398L57.701 66.2395L48.3049 58.9696L13.1898 67.4398C13.1898 67.4398 10.3092 65.8623 10.1721 64.3878C10.1721 64.3878 7.22294 33.3191 7.01719 30.7472C6.81144 28.141 7.97737 26.9065 9.62339 26.495Z" fill="#E4DDCE" stroke="black" stroke-width="0.5" stroke-miterlimit="10" stroke-linecap="round" stroke-linejoin="round"/>
<path d="M10.8237 27.5581L53.9632 16.8246C55.2663 16.4817 56.4665 17.4419 56.6037 18.8822L61.2332 67.4398L50.2597 58.7982L14.6302 67.6113C13.3271 67.9542 12.1268 66.994 11.9897 65.5538L8.69762 30.8158C8.56045 29.3413 9.52063 27.8667 10.8237 27.5581Z" fill="white" stroke="black" stroke-width="0.5" stroke-miterlimit="10" stroke-linecap="round" stroke-linejoin="round"/>
<path d="M48.339 44.6698C48.339 44.6698 53.9286 51.151 53.9972 51.9054C54.1001 53.0714 53.9629 54.203 53.8943 54.9574C53.7914 56.1577 53.6543 57.9751 50.9109 57.0835C47.8246 56.0891 44.8755 51.1853 44.8755 51.1853" fill="#9B6234"/>
<path d="M48.339 44.6698C48.339 44.6698 53.9286 51.151 53.9972 51.9054C54.1001 53.0714 53.9629 54.203 53.8943 54.9574C53.7914 56.1577 53.6543 57.9751 50.9109 57.0835C47.8246 56.0891 44.8755 51.1853 44.8755 51.1853" stroke="#1D1D1B" stroke-width="0.5" stroke-miterlimit="10" stroke-linecap="round" stroke-linejoin="round"/>
<path d="M49.608 45.9387C49.608 45.9387 48.4763 43.6411 45.3901 40.0747C42.6124 36.8855 41.0692 36.9541 41.0692 36.9541L39.0117 43.5382L45.6987 52.9L49.608 45.9387Z" fill="#F9F3C7" stroke="black" stroke-width="0.5" stroke-miterlimit="10" stroke-linecap="round" stroke-linejoin="round"/>
<path d="M48.8193 49.2994C48.8193 49.2994 49.7795 43.0582 50.0539 39.7319C50.1224 38.7374 50.2939 37.2285 50.3282 37.0571C50.6025 35.2739 52.0428 35.6854 52.0428 35.6854L56.9123 33.7307L57.9067 35.0681C57.9067 35.0681 54.1689 37.4343 53.6545 38.7031C53.243 39.7662 53.9974 52.8657 53.9974 52.8657" fill="#9B6234"/>
<path d="M48.8193 49.2994C48.8193 49.2994 49.7795 43.0582 50.0539 39.7319C50.1224 38.7374 50.2939 37.2285 50.3282 37.0571C50.6025 35.2739 52.0428 35.6854 52.0428 35.6854L56.9123 33.7307L57.9067 35.0681C57.9067 35.0681 54.1689 37.4343 53.6545 38.7031C53.243 39.7662 53.9974 52.8657 53.9974 52.8657" stroke="#1D1D1B" stroke-width="0.5" stroke-miterlimit="10" stroke-linecap="round" stroke-linejoin="round"/>
<path d="M54.1689 36.3713C54.1689 36.3713 54.8548 35.8912 55.1977 35.2739C55.5406 34.6567 55.4378 33.5593 55.8493 33.0449C56.1579 32.702 56.5008 32.7706 56.7066 32.9078C56.8094 32.5306 56.9123 32.1534 57.1524 31.9133C57.3924 31.639 57.8382 31.5361 57.8725 31.8104C57.9411 31.6047 58.1125 31.1246 58.2497 30.9874C58.7298 30.473 59.4499 30.3359 59.3471 31.0217C59.2442 31.5361 58.8327 32.8392 58.6612 33.4907L59.8614 32.702C60.2044 32.462 60.8902 32.1533 61.1302 32.4963C61.336 32.8392 61.1988 32.8049 60.8559 33.0449L54.4433 37.743" fill="#9B6234"/>
<path d="M54.1689 36.3713C54.1689 36.3713 54.8548 35.8912 55.1977 35.2739C55.5406 34.6567 55.4378 33.5593 55.8493 33.0449C56.1579 32.702 56.5008 32.7706 56.7066 32.9078C56.8094 32.5306 56.9123 32.1534 57.1524 31.9133C57.3924 31.639 57.8382 31.5361 57.8725 31.8104C57.9411 31.6047 58.1125 31.1246 58.2497 30.9874C58.7298 30.473 59.4499 30.3359 59.3471 31.0217C59.2442 31.5361 58.8327 32.8392 58.6612 33.4907L59.8614 32.702C60.2044 32.462 60.8902 32.1533 61.1302 32.4963C61.336 32.8392 61.1988 32.8049 60.8559 33.0449L54.4433 37.743" stroke="#1D1D1B" stroke-width="0.5" stroke-miterlimit="10" stroke-linecap="round" stroke-linejoin="round"/>
<path d="M57.9413 31.8104L57.3926 35.3082" stroke="#1D1D1B" stroke-width="0.5" stroke-miterlimit="10" stroke-linecap="round" stroke-linejoin="round"/>
<path d="M56.7065 32.9763L56.4321 36.1655" stroke="#1D1D1B" stroke-width="0.5" stroke-miterlimit="10" stroke-linecap="round" stroke-linejoin="round"/>
<path d="M58.3867 34.8623L58.6954 33.4563" stroke="#1D1D1B" stroke-width="0.5" stroke-miterlimit="10" stroke-linecap="round" stroke-linejoin="round"/>
<path d="M50.2256 38.3602C50.3628 37.0571 50.2599 36.0969 50.6028 35.4453C51.1858 34.4509 51.803 33.6964 52.0774 33.0106C52.3517 32.359 52.8661 31.2274 52.969 30.8845C53.0718 30.5415 53.8606 30.2329 53.8948 30.9188C53.9291 31.6046 53.3462 33.2506 53.4148 33.7307C53.4833 34.2108 54.2378 34.9309 54.4778 34.8624" fill="#9B6234"/>
<path d="M50.2256 38.3602C50.3628 37.0571 50.2599 36.0969 50.6028 35.4453C51.1858 34.4509 51.803 33.6964 52.0774 33.0106C52.3517 32.359 52.8661 31.2274 52.969 30.8845C53.0718 30.5415 53.8606 30.2329 53.8948 30.9188C53.9291 31.6046 53.3462 33.2506 53.4148 33.7307C53.4833 34.2108 54.2378 34.9309 54.4778 34.8624" stroke="#1D1D1B" stroke-width="0.5" stroke-miterlimit="10" stroke-linecap="round" stroke-linejoin="round"/>
<path d="M27.3181 36.9884L22.2086 39.4575L21.1455 50.0194L25.5692 64.8679L43.8126 60.3414C43.744 59.7584 43.9498 57.1179 43.6411 51.9398C43.5383 50.2595 43.744 46.796 43.5383 45.2185C43.0582 41.2407 41.1721 37.88 41.0349 36.9198C41.0007 36.6112 36.5427 36.3712 35.5482 36.0968C34.5537 35.8225 27.3181 36.9884 27.3181 36.9884Z" fill="#F9F3C7" stroke="black" stroke-width="0.5" stroke-miterlimit="10" stroke-linecap="round" stroke-linejoin="round"/>
<path d="M22.2083 39.4574C22.2083 39.4574 20.528 39.4232 19.2591 41.4807C18.1275 43.3325 16.1729 58.2495 16.1729 58.2495L23.2713 54.1345C23.2713 54.1345 24.6087 52.077 24.5401 51.494C23.9915 46.8303 23.0313 38.7716 22.2083 39.4574Z" fill="#F9F3C7" stroke="black" stroke-width="0.5" stroke-miterlimit="10" stroke-linecap="round" stroke-linejoin="round"/>
<path d="M20.2197 26.255C20.6998 25.3291 19.8425 24.8833 20.1854 24.4718C20.4255 24.1974 20.5626 23.8545 20.6655 23.5116C20.5283 23.1344 20.2883 22.8943 20.494 22.5171C20.7684 21.9684 21.0084 21.4541 21.1799 20.9054C21.4199 20.2195 22.1744 20.2195 22.4487 19.1908C22.723 18.2306 22.9288 18.4706 23.5118 18.0591C24.0947 17.6133 23.5803 16.9618 24.712 16.6875C25.0892 16.5846 25.1235 16.0016 26.118 16.0016C27.1467 16.0016 27.3868 15.3844 28.4155 15.7616C29.4443 16.1388 29.8901 15.3501 30.3359 15.6587C30.9189 16.0359 31.8447 16.1388 32.462 16.2759C32.5992 16.2074 32.7706 16.1731 32.9421 16.1388C33.7308 16.1388 33.9709 16.7903 35.1025 16.7217C36.1998 16.6532 35.9598 16.9275 36.6113 17.2704C37.2286 17.6476 37.7773 16.9961 38.3945 17.8877C38.6003 18.1963 39.2175 18.0249 39.5262 18.9164C39.8348 19.808 40.5549 19.8423 40.4521 20.8368C40.3492 21.8313 41.3094 22.0027 41.1379 22.4828C40.795 23.3744 41.2751 24.7461 41.1036 25.1233C40.795 25.8092 40.3149 25.8777 39.9034 26.7008C39.8005 26.9065 39.8348 27.9696 38.9775 28.3125C38.1202 28.6554 38.4974 29.4098 37.9144 29.3413C37.3315 29.2727 36.7828 30.6444 36.7828 30.6444L31.8447 30.4386C31.9476 30.7472 32.0505 30.8501 31.8104 31.3302C31.5704 31.8103 31.4675 31.4331 31.056 31.9475C30.6445 32.4618 30.4388 32.9762 29.6158 32.8733C28.7927 32.7705 28.5184 33.3191 27.9354 33.0448C27.3868 32.8048 26.8038 33.2506 26.2208 33.0448C25.4664 32.8048 25.5007 32.1189 24.4033 31.8103C23.3746 31.5359 23.6489 31.3645 23.2031 30.8158C22.7573 30.2671 22.0029 30.7129 21.7629 29.6842C21.6943 29.307 21.0427 29.307 21.077 28.3468C21.1799 27.3866 19.7739 27.1808 20.2197 26.255Z" fill="#6B6262" stroke="black" stroke-width="0.5" stroke-miterlimit="10" stroke-linecap="round" stroke-linejoin="round"/>
<path d="M37.7802 30.269C38.1773 30.247 38.483 29.9378 38.4631 29.5785C38.4431 29.2192 38.1049 28.9458 37.7078 28.9679C37.3107 28.99 37.005 29.2992 37.0249 29.6585C37.0449 30.0178 37.383 30.2911 37.7802 30.269Z" fill="#F9F3C7" stroke="black" stroke-width="0.5" stroke-miterlimit="10" stroke-linecap="round" stroke-linejoin="round"/>
<path d="M36.1653 35.0338C35.6166 34.588 35.4109 32.7019 35.4109 32.7019L28.0381 29.547C28.0381 29.547 28.5868 33.7307 28.5868 34.8623C28.5868 35.2738 36.5082 35.3081 36.1653 35.0338Z" fill="#9B6234" stroke="#1D1D1B" stroke-width="0.5" stroke-miterlimit="10" stroke-linecap="round" stroke-linejoin="round"/>
<path d="M36.44 33.8336C36.44 33.8336 36.7829 35.8225 37.2973 36.9541C37.7431 37.9829 38.0175 39.3203 35.2055 40.2462C32.3936 41.1721 26.2896 38.1887 26.4953 37.3999C26.7354 36.4741 27.1469 36.817 27.5927 36.0283C28.0385 35.2395 27.0783 33.4563 28.0385 33.3878C28.4157 33.3535 28.3128 33.9707 29.4787 34.5194C30.5761 35.0338 31.7763 35.3081 33.2509 35.0681C35.617 34.7251 35.4113 34.005 35.4113 34.005C35.4113 34.005 36.1657 33.0448 36.44 33.8336Z" fill="#F9F3C7" stroke="black" stroke-width="0.5" stroke-miterlimit="10" stroke-linecap="round" stroke-linejoin="round"/>
<path d="M30.2329 33.7307C30.2329 33.7307 31.6389 34.9995 33.0106 35.411C34.3822 35.8225 35.7196 35.4795 36.1654 35.0338C36.6798 34.4508 37.4685 31.2273 37.6057 30.13C37.7429 29.0326 37.8457 27.9696 37.5371 26.8722C37.2285 25.7749 37.3657 23.8545 37.3657 23.8545C37.3657 23.8545 35.9254 23.8545 33.6621 23.7174C31.3988 23.5459 29.8557 23.203 28.9298 24.4718C28.0382 25.7406 27.5924 25.9463 27.8324 26.7008C28.0725 27.4552 27.5581 28.2439 27.5581 28.2439" fill="#9B6234"/>
<path d="M30.2329 33.7307C30.2329 33.7307 31.6389 34.9995 33.0106 35.411C34.3822 35.8225 35.7196 35.4795 36.1654 35.0338C36.6798 34.4508 37.4685 31.2273 37.6057 30.13C37.7429 29.0326 37.8457 27.9696 37.5371 26.8722C37.2285 25.7749 37.3657 23.8545 37.3657 23.8545C37.3657 23.8545 35.9254 23.8545 33.6621 23.7174C31.3988 23.5459 29.8557 23.203 28.9298 24.4718C28.0382 25.7406 27.5924 25.9463 27.8324 26.7008C28.0725 27.4552 27.5581 28.2439 27.5581 28.2439" stroke="black" stroke-width="0.5" stroke-miterlimit="10" stroke-linecap="round" stroke-linejoin="round"/>
<path d="M36.3711 28.4497C36.6173 28.4497 36.8169 28.2501 36.8169 28.0039C36.8169 27.7577 36.6173 27.5581 36.3711 27.5581C36.1249 27.5581 35.9253 27.7577 35.9253 28.0039C35.9253 28.2501 36.1249 28.4497 36.3711 28.4497Z" fill="black"/>
<path d="M36.1313 32.2904C36.1313 32.2904 35.7541 33.5593 34.8625 33.7307C34.1081 33.9022 32.8735 32.9077 32.8735 32.9077C32.8735 32.9077 34.1423 32.8048 34.7939 32.7362C35.4112 32.6676 36.1313 32.2904 36.1313 32.2904Z" fill="#D35224" stroke="black" stroke-width="0.5" stroke-miterlimit="10" stroke-linecap="round" stroke-linejoin="round"/>
<path d="M36.1314 32.2904C36.1314 32.2904 35.7885 32.2561 35.5827 32.1532C35.377 32.016 35.1369 31.9817 35.1369 31.9817L34.794 32.1875L34.3825 32.1189C34.3825 32.1189 33.6967 32.3932 33.4566 32.4961C33.2509 32.599 32.8394 32.8733 32.8394 32.8733C32.8394 32.8733 34.3482 32.8047 34.7597 32.7705C35.1712 32.7362 36.1314 32.2904 36.1314 32.2904Z" fill="#D35224" stroke="black" stroke-width="0.5" stroke-miterlimit="10" stroke-linecap="round" stroke-linejoin="round"/>
<path d="M35.7196 30.0957C35.7196 30.0957 36.0625 30.4044 35.8568 30.5758C35.651 30.7473 35.4453 30.7816 35.3081 30.8159C35.2052 30.8502 35.0681 31.1245 34.7937 31.1931C34.5194 31.2617 34.2108 31.1245 34.0736 31.1245C33.9364 31.1245 33.4563 31.2617 33.2163 31.2274C32.942 31.1931 33.0106 30.7473 33.0106 30.7473" stroke="black" stroke-width="0.5" stroke-miterlimit="10" stroke-linecap="round" stroke-linejoin="round"/>
<path d="M28.45 30.953C28.45 30.953 27.6956 30.9873 27.0097 30.2672C26.3239 29.5471 26.1524 28.6212 26.221 28.1754C26.4268 27.2495 27.7299 27.4552 28.0042 27.8325" fill="#9B6234"/>
<path d="M28.45 30.953C28.45 30.953 27.6956 30.9873 27.0097 30.2672C26.3239 29.5471 26.1524 28.6212 26.221 28.1754C26.4268 27.2495 27.7299 27.4552 28.0042 27.8325" stroke="black" stroke-width="0.5" stroke-miterlimit="10" stroke-linecap="round" stroke-linejoin="round"/>
<path d="M38.9776 22.9973C38.7718 23.3059 38.4289 24.1632 38.0517 24.4033C37.4001 24.8148 36.8172 24.4033 35.8913 25.0548C35.034 25.6721 35.034 25.3291 34.3138 25.3634C33.5594 25.3977 33.5251 26.1864 32.4621 25.7749C32.0849 25.6378 31.7076 26.0836 30.8846 25.5349C30.0959 24.9519 29.4444 25.3291 28.93 24.4375C28.4156 23.5459 27.4897 23.9232 27.3525 23.4431" fill="#6B6262"/>
<path d="M38.9776 22.9973C38.7718 23.3059 38.4289 24.1632 38.0517 24.4033C37.4001 24.8148 36.8172 24.4033 35.8913 25.0548C35.034 25.6721 35.034 25.3291 34.3138 25.3634C33.5594 25.3977 33.5251 26.1864 32.4621 25.7749C32.0849 25.6378 31.7076 26.0836 30.8846 25.5349C30.0959 24.9519 29.4444 25.3291 28.93 24.4375C28.4156 23.5459 27.4897 23.9232 27.3525 23.4431" stroke="black" stroke-width="0.5" stroke-miterlimit="10" stroke-linecap="round" stroke-linejoin="round"/>
<path d="M32.3247 29.2041C32.5709 29.2041 32.7705 29.0045 32.7705 28.7583C32.7705 28.5121 32.5709 28.3125 32.3247 28.3125C32.0785 28.3125 31.8789 28.5121 31.8789 28.7583C31.8789 29.0045 32.0785 29.2041 32.3247 29.2041Z" fill="black"/>
<path d="M37.6705 29.1088C38.2994 28.4009 38.3043 27.3784 37.6814 26.8249C37.0585 26.2714 36.0437 26.3966 35.4147 27.1044C34.7858 27.8123 34.7808 28.8348 35.4037 29.3883C36.0266 29.9418 37.0415 29.8166 37.6705 29.1088Z" stroke="black" stroke-width="0.5" stroke-miterlimit="10" stroke-linecap="round" stroke-linejoin="round"/>
<path d="M33.3374 29.8685C33.9664 29.1606 33.9713 28.1381 33.3484 27.5846C32.7255 27.0311 31.7107 27.1563 31.0817 27.8641C30.4527 28.572 30.4478 29.5945 31.0707 30.148C31.6936 30.7015 32.7085 30.5763 33.3374 29.8685Z" stroke="black" stroke-width="0.5" stroke-miterlimit="10" stroke-linecap="round" stroke-linejoin="round"/>
<path d="M27.1123 26.7694L30.6444 28.5526" stroke="black" stroke-width="0.5" stroke-miterlimit="10" stroke-linecap="round" stroke-linejoin="round"/>
<path d="M34.8967 28.1411L33.7993 28.3125" stroke="black" stroke-width="0.5" stroke-miterlimit="10" stroke-linecap="round" stroke-linejoin="round"/>
<path d="M28.2128 31.4346C28.6099 31.4125 28.9156 31.1034 28.8957 30.7441C28.8757 30.3848 28.5376 30.1114 28.1404 30.1335C27.7433 30.1556 27.4376 30.4647 27.4576 30.824C27.4775 31.1833 27.8157 31.4567 28.2128 31.4346Z" fill="#F9F3C7" stroke="black" stroke-width="0.5" stroke-miterlimit="10" stroke-linecap="round" stroke-linejoin="round"/>
<path d="M39.6632 42.8867C39.6632 42.7495 39.5603 42.6123 39.4574 42.5094C39.4917 42.4409 39.526 42.4066 39.526 42.338C39.5946 42.0293 39.2174 41.8236 38.9087 41.7893L36.8169 41.4121C36.7483 41.4121 36.6798 41.4121 36.6112 41.4121L34.245 41.8579C34.2107 41.8579 34.1421 41.8922 34.1078 41.8922L35.3424 40.692L37.297 40.109C37.6056 40.0404 37.9143 39.8004 37.88 39.4917C37.8114 39.1831 37.6056 39.2174 37.297 39.286L34.9994 39.4917C34.8966 39.526 34.7937 39.5603 34.6908 39.6632L33.3877 41.0006L33.3534 41.0349L33.182 41.2063L28.8269 45.4586L28.1067 46.1787C28.1067 46.1787 19.568 53.5515 17.8534 54.8889C16.2759 56.0891 15.2472 60.2385 16.6189 61.1644C17.9905 62.0902 19.808 62.0217 21.6941 60.7529C23.5459 59.484 30.4386 49.0592 30.4729 48.9907C30.6786 48.7163 30.8844 48.442 31.1244 48.1676C31.1587 48.1676 31.1587 48.1676 31.193 48.1676C33.2848 47.4475 34.8966 45.4929 35.4109 45.0128L37.6742 44.3612L38.7373 44.0183C39.0459 43.9497 39.4574 43.7097 39.3888 43.4353C39.3888 43.401 39.3545 43.3324 39.3545 43.2982C39.526 43.2296 39.6632 43.0924 39.6632 42.8867Z" fill="#9B6234" stroke="#1D1D1B" stroke-width="0.5" stroke-miterlimit="10" stroke-linecap="round" stroke-linejoin="round"/>
<path d="M35.0337 42.7152L36.7483 42.5095H39.4574" stroke="#1D1D1B" stroke-width="0.5" stroke-miterlimit="10" stroke-linecap="round" stroke-linejoin="round"/>
<path d="M39.3544 43.3325C39.3544 43.3325 37.5369 43.4011 37.2625 43.4011C36.9882 43.4011 35.8223 43.7783 35.8223 43.7783" stroke="#1D1D1B" stroke-width="0.5" stroke-miterlimit="10" stroke-linecap="round" stroke-linejoin="round"/>
</g>
</g>
<defs>
<clipPath id="clip0_3905_14254">
<rect width="104" height="104" fill="white" transform="translate(0.333496)"/>
</clipPath>
<clipPath id="clip1_3905_14254">
<rect width="104" height="102.349" fill="white" transform="translate(0.333496 1)"/>
</clipPath>
</defs>
</svg>
