<svg width="104" height="104" viewBox="0 0 104 104" fill="none" xmlns="http://www.w3.org/2000/svg">
<g clip-path="url(#clip0_3905_14259)">
<path d="M4.6629 48.3153C7.31658 22.3104 36.0244 3.70759 62.1176 6.37029C88.2108 9.03298 101.823 31.9751 99.1718 57.9595C96.5202 83.9439 68.2164 100.97 42.1163 98.3065C16.0162 95.6431 2.0113 74.2997 4.6629 48.3153Z" fill="#DCF0FF"/>
<path d="M30.8362 52.0842L19.9233 81.434L21.2444 82.755L28.8259 63.0544L30.8362 52.0842Z" fill="#C8BFAD" stroke="black" stroke-width="0.5" stroke-miterlimit="10" stroke-linecap="round" stroke-linejoin="round"/>
<path d="M29.6303 60.7571L70.4099 41.3437L46.8611 77.5284L21.2446 82.7551L29.6303 60.7571Z" fill="black" stroke="black" stroke-width="0.5" stroke-miterlimit="10" stroke-linecap="round" stroke-linejoin="round"/>
<path d="M18.6025 21.1836L20.9574 20.839L82.7586 83.674L27.5051 92.8063L18.6025 21.1836Z" fill="#C8BFAD" stroke="black" stroke-width="0.5" stroke-miterlimit="10" stroke-linecap="round" stroke-linejoin="round"/>
<path d="M20.9575 20.839L76.2684 11.4769L85.1136 83.6166L29.8027 92.6915L20.9575 20.839Z" fill="white" stroke="black" stroke-width="0.5" stroke-miterlimit="10" stroke-linecap="round" stroke-linejoin="round"/>
<mask id="mask0_3905_14259" style="mask-type:alpha" maskUnits="userSpaceOnUse" x="27" y="18" width="53" height="68">
<path d="M71.9032 18.3118L79.0253 78.7346L35.0867 85.7992L27.7349 25.7211L71.9032 18.3118Z" fill="#ECE8E1"/>
</mask>
<g mask="url(#mask0_3905_14259)">
<path fill-rule="evenodd" clip-rule="evenodd" d="M77.819 36.3466C76.7852 36.5764 75.8662 37.5528 75.6364 38.7015C75.6364 38.759 75.6364 38.759 75.6364 38.8164C75.6364 38.8738 75.6364 38.8738 75.6364 38.9313C75.4067 39.0461 75.177 39.161 75.0046 39.3908C75.0046 39.3333 75.0046 39.3333 75.0046 39.2759C75.0046 39.2185 75.0046 39.1036 75.0046 39.0461C75.0621 38.759 74.9472 38.5292 74.8323 38.3569C74.7749 38.242 74.7175 38.1272 74.6026 38.0697C74.6026 38.0697 74.6026 38.0697 74.6026 38.0123C74.7175 37.84 74.7749 37.6102 74.7175 37.4379C74.7175 37.3805 74.66 37.3231 74.66 37.2656C74.6026 36.8061 74.3728 36.4615 74.0282 36.2318C74.0857 36.0595 74.0857 35.8872 74.0857 35.7149C74.0857 35.3128 73.9708 34.9107 73.7985 34.681C73.8559 34.4513 73.7985 34.2215 73.7985 33.9918C73.7985 33.9918 73.7985 33.9918 73.7985 33.9343C73.8559 33.762 73.8559 33.6472 73.8559 33.4748C73.8559 32.441 73.1092 31.7518 72.1903 31.9815C72.018 32.0389 71.9031 32.0964 71.7308 32.1538C71.501 32.2113 71.2713 32.3836 71.099 32.6133C71.0415 32.5559 70.9841 32.5559 70.9267 32.5559C70.8692 32.4984 70.7544 32.4984 70.5821 32.4984C70.4672 32.4984 70.4098 32.5559 70.2949 32.6133C70.0651 32.7282 69.8354 33.0154 69.7205 33.2451C69.6056 33.2451 69.5482 33.3025 69.4333 33.36C69.3759 33.36 69.3759 33.36 69.3185 33.4174H69.261C69.0887 33.5323 68.9739 33.762 68.859 33.9918C68.8015 34.1066 68.7441 34.2789 68.7441 34.3938C68.7441 34.4513 68.7441 34.4513 68.7441 34.5087C68.7441 34.5087 68.7441 34.5087 68.7441 34.5661C68.6867 34.5661 68.6867 34.5661 68.6292 34.5087C68.0549 34.2215 67.4231 34.1641 66.6764 34.3364C64.7236 34.7959 63.0579 36.8636 62.6559 39.161C62.4836 39.9077 62.4261 40.7118 62.541 41.4585C62.5984 41.7456 62.6559 42.0903 62.8856 42.2626C62.9431 42.3774 62.9431 42.4349 63.0005 42.5497C62.8282 42.6646 62.7133 42.7795 62.541 43.0092C62.3113 43.3538 62.2538 43.7559 62.3687 44.0431L62.1964 44.2728C62.0815 44.3303 61.9666 44.4451 61.8518 44.56C61.5072 43.8708 60.7605 43.5262 59.899 43.6985C59.6692 43.7559 59.4969 43.8133 59.3246 43.9282C59.1523 43.9856 59.0374 44.1005 58.9225 44.2154C58.8651 44.2728 58.8077 44.3303 58.7502 44.3877C58.3482 44.7323 58.061 45.3067 57.8312 45.8236C57.7164 45.8236 57.6589 45.8236 57.5441 45.8236C56.9697 45.9385 56.5102 46.5703 56.5102 47.2021C56.5102 47.3744 56.5102 47.5467 56.5677 47.6615C55.9933 47.7764 55.4189 48.4657 55.4189 49.0975C55.4189 49.7292 55.9933 50.0164 56.5677 49.9016C56.74 49.8441 56.9123 49.7867 57.0271 49.6718C58.061 49.3846 61.5072 48.4657 61.5072 48.4657C62.1964 48.2359 77.3021 46.5128 77.7616 46.398C78.1062 46.4554 79.0826 36.0595 77.819 36.3466Z" fill="white"/>
<path d="M77.4746 45.6513C76.9002 45.3641 76.6705 44.7898 75.9238 44.9621C75.9238 44.9046 75.9238 44.8472 75.9238 44.7898C75.9238 44.1005 75.4643 43.6985 74.8325 43.8134C74.5453 43.8708 74.3156 44.0431 74.1433 44.2728C74.0284 43.3539 73.3392 42.7795 72.4202 42.9518C71.8458 43.0667 71.3289 43.5262 70.9843 44.0431C70.7546 43.9282 70.5248 43.9282 70.2376 43.9857C69.4335 44.158 68.9166 45.9385 67.7104 46.7426C67.3084 46.9149 67.1361 46.7426 66.7915 46.5703C66.332 46.2831 65.7002 46.9723 65.3556 46.4554C65.1832 46.2257 64.8961 46.1108 64.5515 46.1682C64.1494 46.2831 63.4602 46.6852 62.9432 46.9723C62.8858 46.9723 62.7709 46.9723 62.7135 46.9723C62.1391 46.9723 61.5073 48.3508 60.3012 48.0636C59.612 47.8913 58.5781 49.04 58.176 49.0975C57.774 49.1549 57.4868 48.5231 56.855 49.04C56.2232 49.557 55.4766 49.1549 55.4766 49.1549C55.534 49.6144 55.8212 50.2462 56.5678 49.959C57.1422 49.7293 57.6017 50.8206 58.1186 50.5334C58.4632 50.3036 58.693 49.8441 59.0376 49.6144C59.6119 49.3272 60.1289 49.959 60.6458 49.6718C61.1627 49.4421 61.4499 48.5231 61.9668 48.4657C62.0817 48.4657 62.1966 48.5231 62.3114 48.5231C63.0007 48.8103 63.8048 48.9826 64.5515 49.04C65.9874 49.1549 66.6766 49.557 68.6294 47.9488C70.1228 46.7426 71.7884 48.3508 73.454 47.9488C75.0623 47.6041 75.4643 46.3405 77.4171 46.8575C78.6233 47.3744 78.451 45.5939 77.4746 45.6513ZM78.1064 45.7662C77.9341 45.7662 77.7617 45.7662 77.6469 45.7088C77.7617 45.7662 77.8766 45.7662 78.1064 45.7662Z" fill="#E2DAC7"/>
<path d="M81.38 81.1467C81.38 81.1467 75.8087 61.0441 73.8559 60.9867C73.8559 60.9867 64.8958 56.4492 63.9769 55.7026C63.9769 55.7026 60.9328 55.76 59.8989 55.7026C58.9225 55.6451 57.544 52.7159 55.304 52.9456C55.304 52.9456 49.6178 48.0061 48.6989 48.0636L48.2968 48.9251L47.8948 50.1887C47.8948 50.1887 45.9419 54.0944 44.3912 55.2431C44.3912 55.2431 42.7255 56.5641 41.5194 59.0339C41.5194 59.0339 41.2322 72.4165 37.6712 75.9775C37.6712 75.9775 31.1809 88.9006 30.7788 89.4175C30.3768 89.9345 40.026 88.556 40.026 88.556C40.026 88.556 47.9522 87.3498 48.2968 87.2924C50.4794 86.7755 81.38 81.1467 81.38 81.1467Z" fill="black" stroke="black" stroke-width="0.5" stroke-miterlimit="10" stroke-linecap="round" stroke-linejoin="round"/>
<path d="M30.7786 89.4176L35.1437 74.1971C38.6473 70.636 41.4043 59.0914 41.4043 59.0914C42.6104 56.5642 44.2761 55.3006 44.2761 55.3006C45.8268 54.1519 47.5499 50.0739 47.5499 50.0739L48.1243 48.9826L48.5263 48.1211C48.9284 49.1549 48.2392 50.7057 48.2392 50.7057V50.7632C48.2966 51.7396 49.0432 52.4288 50.0771 52.716C50.6515 52.8309 51.111 53.0606 51.111 53.0606C50.9961 55.1857 47.0904 60.757 47.0904 60.757C45.1376 62.7673 44.9079 64.2606 44.9079 64.835C44.9079 64.8924 44.9653 64.9499 45.0227 64.8924C45.4822 64.2606 48.4689 62.1355 48.4689 62.1355C47.952 63.9734 47.6074 66.2135 47.435 67.7068C47.3202 68.6832 47.952 69.5447 49.0433 69.717L51.9151 70.234L52.3745 73.4504C52.4894 74.1396 53.0063 74.6566 53.8104 74.7714L59.2094 75.6904L59.4392 78.3899L63.8617 84.8802C63.9766 84.8802 30.3191 89.8771 30.7786 89.4176Z" fill="#88795C" stroke="black" stroke-width="0.5" stroke-miterlimit="10" stroke-linecap="round" stroke-linejoin="round"/>
<path d="M46.5737 29.4543C49.503 28.4205 50.1348 29.9138 52.2025 29.1671C54.2702 28.4205 55.1891 25.8933 57.4292 25.1466C59.6692 24.4 61.3922 24.7446 61.3922 24.7446L62.4261 33.36C62.4261 33.36 60.5881 32.9579 58.6927 33.7046C56.5102 34.5661 56.2804 36.921 53.2363 37.84C50.7091 38.5867 50.3645 37.1508 47.6076 38.1272" fill="#6AC38B"/>
<path d="M46.5737 29.4543C49.503 28.4205 50.1348 29.9138 52.2025 29.1671C54.2702 28.4205 55.1891 25.8933 57.4292 25.1466C59.6692 24.4 61.3922 24.7446 61.3922 24.7446L62.4261 33.36C62.4261 33.36 60.5881 32.9579 58.6927 33.7046C56.5102 34.5661 56.2804 36.921 53.2363 37.84C50.7091 38.5867 50.3645 37.1508 47.6076 38.1272" stroke="black" stroke-width="0.5" stroke-miterlimit="10" stroke-linecap="round" stroke-linejoin="round"/>
<path d="M49.1011 50.3611L48.7565 50.476L46.1719 29.5693L46.5739 29.4544L49.1011 50.3611Z" fill="black" stroke="black" stroke-width="0.5" stroke-miterlimit="10" stroke-linecap="round" stroke-linejoin="round"/>
<path d="M41.4619 60.1826C40.4855 59.4359 38.7624 59.7231 37.2116 60.2975C35.6608 60.8718 34.1101 61.7334 32.5593 62.0205C31.6403 62.1929 30.7788 62.1354 29.8024 62.4226C28.8834 62.7098 28.4813 63.3416 28.0793 64.318C26.7583 63.6862 28.2516 69.3724 29.1706 68.9129C31.9275 67.5344 31.5829 68.6831 34.2824 68.3385C36.0055 68.1088 37.8434 67.5344 39.5665 67.0749C42.7255 66.2708 45.7696 66.0411 48.8137 65.8113C55.1317 65.237 61.5071 64.5477 67.8825 63.7436C68.1697 63.6862 68.5143 63.6862 68.8014 63.4564C69.5481 62.9395 69.4907 61.9057 69.1461 61.3887C68.3994 60.1826 66.8486 59.838 65.2404 59.838C63.6322 59.838 61.9666 60.1826 60.4158 60.1252C58.8076 60.0677 57.2568 59.6082 55.4763 60.3549C54.7871 60.6421 54.0404 61.1016 53.4086 61.159C52.6045 61.2164 52.145 60.5846 51.5706 60.24C50.9388 59.838 50.1922 59.7231 49.3306 59.838C48.6414 59.9528 47.9522 60.24 47.3204 60.3549C45.3101 60.6995 43.7019 59.6657 41.6342 60.4698" fill="white"/>
<path d="M61.6792 62.7673C60.4157 63.8011 59.3818 62.4801 58.1182 62.8247C53.351 64.2606 48.871 61.8483 43.8166 63.6288C38.1879 65.6391 35.1438 63.0544 29.3427 66.3857C28.4238 66.9027 28.0792 70.4063 28.9981 69.9468C31.7551 68.5683 31.2381 69.7745 33.8802 69.4298C35.6033 69.2001 37.9007 67.477 39.6812 67.0175C42.8402 66.2134 44.9079 68.1663 48.0669 67.0175C53.8679 64.8924 61.6218 64.4903 67.9972 63.6288C68.2844 63.5714 68.629 63.5714 68.9162 63.3416C69.2034 63.1119 69.3757 62.8247 69.4906 62.4801C66.8485 62.7098 64.2064 60.757 61.6792 62.7673Z" fill="#E2DAC7"/>
</g>
<path d="M71.9032 18.3118L79.0253 78.7345L35.0867 85.7992L27.7349 25.721L71.9032 18.3118Z" stroke="black" stroke-width="0.5" stroke-miterlimit="10" stroke-linecap="round" stroke-linejoin="round"/>
</g>
<defs>
<clipPath id="clip0_3905_14259">
<rect width="104" height="102.349" fill="white" transform="translate(0 1)"/>
</clipPath>
</defs>
</svg>
