<svg fill="none" height="124" viewBox="0 0 124 124" width="124" xmlns="http://www.w3.org/2000/svg"><path d="m0 63.0725c0-34.3746 34.9449-62.593008 69.3104-62.593008 34.3656 0 54.6896 19.382608 54.6896 53.757208 0 34.3745-34.1573 69.2833-68.5318 69.2833s-55.4682-26.073-55.4682-60.4475z" fill="#dcf0ff"/><g stroke="#000" stroke-linecap="round" stroke-linejoin="round" stroke-miterlimit="10" stroke-width=".5"><path d="m48.5512 73.0399v19.8353l-30.5541-15.3812v-19.618z" fill="#efb484"/><path d="m109.397 42.4946-60.8457 30.5361v19.8353l60.8457-30.536z" fill="#fff1e6"/><path d="m17.9971 57.8759 30.5541 15.1549 60.8458-30.5361-30.8077-14.9376z" fill="#fff1e6"/><path d="m33.2697 50.2979c-3.6575 0-6.6178 1.5933-6.6178 3.5669v4.0105c0 1.9735 2.9603 3.5669 6.6178 3.5669 3.6574 0 6.6178-1.5934 6.6178-3.5669v-4.0105c.009-1.9736-2.9604-3.5669-6.6178-3.5669z" fill="#efb484"/><path d="m33.2697 57.4317c3.6549 0 6.6178-1.597 6.6178-3.5669 0-1.97-2.9629-3.5669-6.6178-3.5669-3.655 0-6.6178 1.5969-6.6178 3.5669 0 1.9699 2.9628 3.5669 6.6178 3.5669z" fill="#fff1e6"/><path d="m48.0441 42.7212c-3.6575 0-6.6178 1.5933-6.6178 3.5669v4.0105c0 1.9736 2.9603 3.5669 6.6178 3.5669 3.6574 0 6.6178-1.5933 6.6178-3.5669v-4.0105c0-1.9736-2.9694-3.5669-6.6178-3.5669z" fill="#efb484"/><path d="m48.0441 49.855c3.6549 0 6.6178-1.5969 6.6178-3.5669 0-1.9699-2.9629-3.5669-6.6178-3.5669s-6.6178 1.597-6.6178 3.5669c0 1.97 2.9629 3.5669 6.6178 3.5669z" fill="#fff1e6"/><path d="m63.8239 35.1436c-3.6575 0-6.6178 1.5933-6.6178 3.5669v4.0105c0 1.9735 2.9603 3.5669 6.6178 3.5669 3.6574 0 6.6178-1.5934 6.6178-3.5669v-4.0105c0-1.9736-2.9604-3.5669-6.6178-3.5669z" fill="#efb484"/><path d="m63.8239 42.2774c3.6549 0 6.6178-1.597 6.6178-3.5669 0-1.97-2.9629-3.5669-6.6178-3.5669-3.655 0-6.6178 1.5969-6.6178 3.5669 0 1.9699 2.9628 3.5669 6.6178 3.5669z" fill="#fff1e6"/><path d="m79.1051 27.1133c-3.6574 0-6.6178 1.5933-6.6178 3.5669v4.0105c0 1.9736 2.9604 3.5669 6.6178 3.5669s6.6178-1.5933 6.6178-3.5669v-4.0105c0-1.9645-2.9694-3.5669-6.6178-3.5669z" fill="#efb484"/><path d="m79.1051 34.2471c3.6549 0 6.6178-1.597 6.6178-3.5669 0-1.97-2.9629-3.5669-6.6178-3.5669s-6.6178 1.5969-6.6178 3.5669c0 1.9699 2.9629 3.5669 6.6178 3.5669z" fill="#fff1e6"/><path d="m48.5514 57.876c-3.6575 0-6.6178 1.5933-6.6178 3.5669v4.0105c0 1.9736 2.9603 3.5669 6.6178 3.5669 3.6574 0 6.6178-1.5933 6.6178-3.5669v-4.0105c0-1.9645-2.9604-3.5669-6.6178-3.5669z" fill="#efb484"/><path d="m48.5514 65.0098c3.6549 0 6.6178-1.597 6.6178-3.5669 0-1.97-2.9629-3.5669-6.6178-3.5669s-6.6178 1.5969-6.6178 3.5669c0 1.9699 2.9629 3.5669 6.6178 3.5669z" fill="#fff1e6"/><path d="m63.317 50.2979c-3.6574 0-6.6178 1.5933-6.6178 3.5669v4.0105c0 1.9735 2.9604 3.5669 6.6178 3.5669 3.6575 0 6.6178-1.5934 6.6178-3.5669v-4.0105c0-1.9736-2.9603-3.5669-6.6178-3.5669z" fill="#efb484"/><path d="m63.317 57.4317c3.6549 0 6.6178-1.597 6.6178-3.5669 0-1.97-2.9629-3.5669-6.6178-3.5669s-6.6178 1.5969-6.6178 3.5669c0 1.9699 2.9629 3.5669 6.6178 3.5669z" fill="#fff1e6"/><path d="m79.1051 42.7212c-3.6574 0-6.6178 1.5933-6.6178 3.5669v4.0105c0 1.9736 2.9604 3.5669 6.6178 3.5669s6.6178-1.5933 6.6178-3.5669v-4.0105c0-1.9736-2.9694-3.5669-6.6178-3.5669z" fill="#efb484"/><path d="m79.1051 49.855c3.6549 0 6.6178-1.5969 6.6178-3.5669 0-1.9699-2.9629-3.5669-6.6178-3.5669s-6.6178 1.597-6.6178 3.5669c0 1.97 2.9629 3.5669 6.6178 3.5669z" fill="#fff1e6"/><path d="m94.3781 34.6997c-3.6575 0-6.6178 1.5934-6.6178 3.5669v4.0105c0 1.9736 2.9603 3.5669 6.6178 3.5669 3.6574 0 6.6179-1.5933 6.6179-3.5669v-4.0105c0-1.9735-2.9605-3.5669-6.6179-3.5669z" fill="#efb484"/><path d="m94.3781 41.8247c3.6549 0 6.6179-1.5969 6.6179-3.5669 0-1.9699-2.963-3.5669-6.6179-3.5669-3.655 0-6.6178 1.597-6.6178 3.5669 0 1.97 2.9628 3.5669 6.6178 3.5669z" fill="#fff1e6"/><path d="m48.4331 54.1277v19.8353l15.5351-8.2473v-19.618z" fill="#0072ef"/><path d="m18.0146 38.52 30.4274 15.6076v19.8352l-30.4274-15.6075z" fill="#07265f"/><path d="m63.9683 46.0978-15.5351 8.021-30.4273-15.6075 15.7885-7.8038z" fill="#0072ef"/><path d="m48.4332 38.9639c3.6575 0 6.6178 1.5933 6.6178 3.5669v4.0105c0 1.9736-2.9603 3.5669-6.6178 3.5669-3.6574 0-6.6178-1.5933-6.6178-3.5669v-4.0105c0-1.9645 2.9694-3.5669 6.6178-3.5669z" fill="#07265f"/><path d="m48.4332 46.0977c3.6549 0 6.6178-1.597 6.6178-3.5669 0-1.97-2.9629-3.5669-6.6178-3.5669s-6.6178 1.5969-6.6178 3.5669c0 1.9699 2.9629 3.5669 6.6178 3.5669z" fill="#0072ef"/><path d="m33.6681 31.3867c3.6574 0 6.6178 1.5934 6.6178 3.5669v4.0105c0 1.9736-2.9604 3.567-6.6178 3.567-3.6575 0-6.6178-1.5934-6.6178-3.567v-4.0105c0-1.9735 2.9603-3.5669 6.6178-3.5669z" fill="#07265f"/><path d="m33.6681 38.5205c3.6549 0 6.6178-1.5969 6.6178-3.5669 0-1.9699-2.9629-3.5669-6.6178-3.5669s-6.6178 1.597-6.6178 3.5669c0 1.97 2.9629 3.5669 6.6178 3.5669z" fill="#0072ef"/></g></svg>